# xmcd
#
# Track frame offsets:
#	150
#	19275
#	44925
#	61312
#	86625
#	111000
#	127537
#	143287
#	170962
#	188550
#	208537
#	228937
#
# Disc length: 3353 seconds
#
# Revision: 0
# Processed by: cddbd v1.5.1PL0 Copyright (c) Steve Scherf et al.
# Submitted via: dBpowerAMP V4.0
#
DISCID=9e0d170c
DTITLE=The Chris Fitz Band - Journey Of Hope
DYEAR=2002
DGENRE=Blues
TTITLE0=Never Been To Memphis
TTITLE1=Filthy Ritch ... With No Bank Account
TTITLE2=That Mess I Left
TTITLE3=Midnight In Barcelona
TTITLE4=One More Beer
TTITLE5=In My Time Of dying
TTITLE6=Journey Of Hope (Part 1)
TTITLE7=Decent Man
TTITLE8=Avoiding Hope
TTITLE9=O'Dessa
TTITLE10=Thank You
TTITLE11=Journey Of Hope (Reprise)
EXTD=
EXTT0=
EXTT1=
EXTT2=
EXTT3=
EXTT4=
EXTT5=
EXTT6=
EXTT7=
EXTT8=
EXTT9=
EXTT10=
EXTT11=
PLAYORDER=
